<svg width="30" height="30" viewBox="0 0 30 30" fill="none" xmlns="http://www.w3.org/2000/svg">
<path d="M26.25 3.75C26.5815 3.75 26.8995 3.8817 27.1339 4.11612C27.3683 4.35054 27.5 4.66848 27.5 5V22.5C27.5 22.8315 27.3683 23.1495 27.1339 23.3839C26.8995 23.6183 26.5815 23.75 26.25 23.75H8.06875L2.5 28.125V5C2.5 4.66848 2.6317 4.35054 2.86612 4.11612C3.10054 3.8817 3.41848 3.75 3.75 3.75H26.25ZM25 6.25H5V22.9813L7.20375 21.25H25V6.25ZM13.1438 9.265L13.7025 10.125C11.6175 11.2538 11.6537 13.065 11.6537 13.455C11.8475 13.43 12.0513 13.425 12.2538 13.4438C12.8015 13.4899 13.3121 13.7394 13.6852 14.143C14.0584 14.5467 14.267 15.0753 14.27 15.625C14.27 16.2052 14.0395 16.7616 13.6293 17.1718C13.2191 17.582 12.6627 17.8125 12.0825 17.8125C11.4113 17.8125 10.77 17.5062 10.365 17.075C9.72125 16.3925 9.375 15.625 9.375 14.3813C9.375 12.1938 10.91 10.2338 13.1438 9.265ZM19.3938 9.265L19.9525 10.125C17.8675 11.2538 17.9037 13.065 17.9037 13.455C18.0975 13.43 18.3013 13.425 18.5037 13.4438C19.0515 13.4899 19.5621 13.7394 19.9352 14.143C20.3084 14.5467 20.517 15.0753 20.52 15.625C20.52 16.2052 20.2895 16.7616 19.8793 17.1718C19.4691 17.582 18.9127 17.8125 18.3325 17.8125C17.6613 17.8125 17.02 17.5062 16.615 17.075C15.9712 16.3925 15.625 15.625 15.625 14.3813C15.625 12.1938 17.16 10.2338 19.3938 9.265Z" fill="url(#paint0_linear_1_253)"/>
<defs>
<linearGradient id="paint0_linear_1_253" x1="2.5" y1="15.9375" x2="27.5" y2="15.9375" gradientUnits="userSpaceOnUse">
<stop stop-color="#FFE000"/>
<stop offset="1" stop-color="#799F0C"/>
</linearGradient>
</defs>
</svg>
